<svg xmlns="http://www.w3.org/2000/svg" viewBox="0 0 500 500" width="36" height="36">
  <circle cx="250" cy="250" r="240" fill="#25D366"/>
  <path fill="#FFFFFF" d="M361.3 138.7C332.3 109.7 293.7 93.7 252.7 93.7c-84.6 0-153.4 68.8-153.4 153.4 0 27 7 53.4 20.5 76.7l-21.8 79.5 81.3-21.3c22.4 12.2 47.6 18.7 73.3 18.7h.1c84.5 0 154.9-68.8 154.9-153.4 0-41-16-79.6-45.6-108.6zm-108.6 236c-22.9 0-45.4-6.2-65-17.8l-4.7-2.8-48.3 12.7 12.9-47.1-3.1-4.9c-12.8-20.3-19.5-43.7-19.5-67.8 0-70.3 57.2-127.5 127.5-127.5 34.1 0 66.1 13.3 90.1 37.4 24.1 24.1 38.8 56.1 38.8 90.2 0 70.3-58.7 127.6-128.7 127.6zm70-95.5c-3.8-1.9-22.7-11.2-26.2-12.5-3.5-1.3-6.1-1.9-8.6 1.9-2.6 3.9-9.9 12.5-12.2 15.1-2.2 2.6-4.5 2.9-8.3 1-22.5-11.3-37.3-20.1-52.2-45.6-3.9-6.8 3.9-6.3 11.3-21 1.3-2.6.6-4.8-0.3-6.7-1-1.9-8.6-20.8-11.8-28.5-3.1-7.5-6.3-6.4-8.6-6.6-2.2-0.1-4.8-0.1-7.3-0.1-2.6 0-6.7 1-10.2 4.8-3.5 3.9-13.4 13.1-13.4 32 0 18.9 13.8 37.1 15.7 39.7 1.9 2.6 27 41.3 65.5 57.9 24.3 10.5 33.9 11.4 46 9.6 7.4-1.1 22.7-9.3 25.9-18.3 3.2-9 3.2-16.7 2.2-18.3-0.9-1.6-3.5-2.6-7.3-4.5z"/>
</svg>
